<?xml version="1.0" encoding="UTF-8" standalone="no"?>
<!-- Created with Inkscape (http://www.inkscape.org/) -->

<svg
   width="400"
   height="400"
   viewBox="0 0 105.83333 105.83333"
   version="1.1"
   id="svg5"
   sodipodi:docname="LizardIcon.svg"
   inkscape:version="1.2.2 (732a01da63, 2022-12-09)"
   inkscape:export-filename="paperIcon.png"
   inkscape:export-xdpi="96"
   inkscape:export-ydpi="96"
   xmlns:inkscape="http://www.inkscape.org/namespaces/inkscape"
   xmlns:sodipodi="http://sodipodi.sourceforge.net/DTD/sodipodi-0.dtd"
   xmlns="http://www.w3.org/2000/svg"
   xmlns:svg="http://www.w3.org/2000/svg">
  <sodipodi:namedview
     id="namedview7"
     pagecolor="#ffffff"
     bordercolor="#000000"
     borderopacity="0.25"
     inkscape:showpageshadow="2"
     inkscape:pageopacity="0"
     inkscape:pagecheckerboard="0"
     inkscape:deskcolor="#d1d1d1"
     inkscape:document-units="mm"
     showgrid="false"
     inkscape:zoom="2"
     inkscape:cx="176"
     inkscape:cy="229"
     inkscape:window-width="2560"
     inkscape:window-height="1369"
     inkscape:window-x="-8"
     inkscape:window-y="-8"
     inkscape:window-maximized="1"
     inkscape:current-layer="layer1" />
  <defs
     id="defs2" />
  <g
     inkscape:label="Layer 1"
     inkscape:groupmode="layer"
     id="layer1">
    <g
       id="g2836"
       transform="rotate(45,52.916667,53.590397)">
      <g
         id="g2825">
        <g
           id="g2809"
           transform="translate(0.13641106)">
          <path
             style="fill:#000000;stroke:#000000;stroke-width:0.0239828"
             d="m 53.032847,-1.1714442 2e-6,109.5334942 c 0,0 -25.772587,-108.28065931 -2e-6,-109.5334942 z"
             id="path2614" />
          <path
             style="fill:#000000;stroke:#000000;stroke-width:0.0239828"
             d="m 52.527663,-1.1714442 1e-6,109.5334942 c 0,0 25.772585,-108.28065998 -1e-6,-109.5334942 z"
             id="path2614-8" />
        </g>
        <g
           id="g2815"
           transform="translate(0.40099467)">
          <path
             style="fill:#000000;stroke:#000000;stroke-width:0.0239828"
             d="m 30.507078,27.822717 -8.804084,-5.083042 9.705591,2.600605 -5.83166,-5.831656 8.184691,4.725431 -3.990352,-6.911488 6.244401,6.244398 14.357783,12.48866 -4.116454,3.579527 z"
             id="path2650" />
          <path
             style="fill:#000000;stroke:#000000;stroke-width:0.0239828"
             d="m 74.524266,27.822716 8.804083,-5.083041 -9.705591,2.600604 5.83166,-5.831656 -8.18469,4.725432 3.990352,-6.911488 -6.244401,6.244397 -14.357782,12.488661 4.116454,3.579527 z"
             id="path2650-1" />
          <path
             style="fill:#000000;stroke:#000000;stroke-width:0.0239828"
             d="m 30.50708,66.693764 -8.804084,5.083042 9.705591,-2.600604 -5.83166,5.831656 8.184691,-4.725432 -3.990353,6.911488 6.244402,-6.244398 14.357782,-12.488661 -4.116455,-3.579527 z"
             id="path2650-9" />
          <path
             style="fill:#000000;stroke:#000000;stroke-width:0.0239828"
             d="m 74.524266,66.693764 8.804084,5.083041 -9.705591,-2.600604 5.83166,5.831656 -8.184691,-4.725432 3.990353,6.911488 -6.244401,-6.244397 -14.357783,-12.488661 4.116455,-3.579527 z"
             id="path2650-1-5" />
        </g>
      </g>
    </g>
  </g>
</svg>
