<?xml version="1.0" encoding="UTF-8" standalone="no"?>
<!-- Created with Inkscape (http://www.inkscape.org/) -->

<svg
   width="400"
   height="400"
   viewBox="0 0 105.83333 105.83333"
   version="1.1"
   id="svg5"
   sodipodi:docname="paperIcon.svg"
   inkscape:version="1.2.2 (732a01da63, 2022-12-09)"
   inkscape:export-filename="rockIcon.png"
   inkscape:export-xdpi="96"
   inkscape:export-ydpi="96"
   xmlns:inkscape="http://www.inkscape.org/namespaces/inkscape"
   xmlns:sodipodi="http://sodipodi.sourceforge.net/DTD/sodipodi-0.dtd"
   xmlns="http://www.w3.org/2000/svg"
   xmlns:svg="http://www.w3.org/2000/svg">
  <sodipodi:namedview
     id="namedview7"
     pagecolor="#ffffff"
     bordercolor="#000000"
     borderopacity="0.25"
     inkscape:showpageshadow="2"
     inkscape:pageopacity="0"
     inkscape:pagecheckerboard="0"
     inkscape:deskcolor="#d1d1d1"
     inkscape:document-units="mm"
     showgrid="false"
     inkscape:zoom="2.8284271"
     inkscape:cx="141.59813"
     inkscape:cy="192.33305"
     inkscape:window-width="2560"
     inkscape:window-height="1369"
     inkscape:window-x="-8"
     inkscape:window-y="-8"
     inkscape:window-maximized="1"
     inkscape:current-layer="layer1" />
  <defs
     id="defs2" />
  <g
     inkscape:label="Layer 1"
     inkscape:groupmode="layer"
     id="layer1">
    <path
       id="rect2075"
       style="fill:#000000;stroke:#000000;stroke-width:0.0177271"
       d="m 29.991451,7.53184 v 0.00879 h 1.58595 v -0.00155 h 7.393864 v 0.00155 h 1.58595 V 7.53184 Z m 10.565764,0.00879 v 24.315312 h -0.0072 a 5.2756386,5.2756386 0 0 0 0,5.16e-4 5.2756386,5.2756386 0 0 0 0,5.17e-4 5.2756386,5.2756386 0 0 0 0,5.17e-4 5.2756386,5.2756386 0 0 0 0,5.17e-4 5.2756386,5.2756386 0 0 0 0,5.17e-4 5.2756386,5.2756386 0 0 0 0,5.16e-4 5.2756386,5.2756386 0 0 0 0,5.17e-4 5.2756386,5.2756386 0 0 0 0,5.17e-4 5.2756386,5.2756386 0 0 0 0,5.17e-4 5.2756386,5.2756386 0 0 0 0,5.16e-4 5.2756386,5.2756386 0 0 0 0,5.17e-4 5.2756386,5.2756386 0 0 0 0,5.17e-4 5.2756386,5.2756386 0 0 0 0,5.17e-4 5.2756386,5.2756386 0 0 0 0,5.16e-4 5.2756386,5.2756386 0 0 0 0,5.17e-4 5.2756386,5.2756386 0 0 0 0,5.17e-4 5.2756386,5.2756386 0 0 0 0,5.17e-4 5.2756386,5.2756386 0 0 1 -5.275647,5.275647 5.2756386,5.2756386 0 0 1 -5.275647,-5.275647 5.2756386,5.2756386 0 0 1 5.17e-4,-0.0088 h -0.0078 V 7.540625 H 24.60625 V 97.498958 H 81.227084 V 7.540625 Z m -1.58595,0 h -7.393864 v 23.017716 h 0.0052 a 3.6919309,4.992662 0 0 0 0,0.0083 3.6919309,4.992662 0 0 0 3.691764,4.992977 3.6919309,4.992662 0 0 0 3.691764,-4.992977 3.6919309,4.992662 0 0 0 0,-5.17e-4 3.6919309,4.992662 0 0 0 0,-5.17e-4 3.6919309,4.992662 0 0 0 0,-5.17e-4 3.6919309,4.992662 0 0 0 0,-5.16e-4 3.6919309,4.992662 0 0 0 0,-5.17e-4 3.6919309,4.992662 0 0 0 0,-5.17e-4 3.6919309,4.992662 0 0 0 0,-5.17e-4 3.6919309,4.992662 0 0 0 0,-5.16e-4 3.6919309,4.992662 0 0 0 0,-5.17e-4 3.6919309,4.992662 0 0 0 0,-5.17e-4 3.6919309,4.992662 0 0 0 0,-5.17e-4 3.6919309,4.992662 0 0 0 0,-5.16e-4 3.6919309,4.992662 0 0 0 0,-5.17e-4 3.6919309,4.992662 0 0 0 0,-5.17e-4 3.6919309,4.992662 0 0 0 0,-5.17e-4 3.6919309,4.992662 0 0 0 0,-5.17e-4 h 0.0052 z" />
    <rect
       style="fill:#000000;stroke:#000000;stroke-width:0.0177271"
       id="rect2480"
       width="13.37684"
       height="10.196332"
       x="46.228249"
       y="7.5318398" />
  </g>
</svg>
