<?xml version="1.0" encoding="UTF-8" standalone="no"?>
<!-- Created with Inkscape (http://www.inkscape.org/) -->

<svg
   width="400"
   height="400"
   viewBox="0 0 105.83333 105.83333"
   version="1.1"
   id="svg5"
   sodipodi:docname="siccorsIcon.svg"
   inkscape:version="1.2.2 (732a01da63, 2022-12-09)"
   xmlns:inkscape="http://www.inkscape.org/namespaces/inkscape"
   xmlns:sodipodi="http://sodipodi.sourceforge.net/DTD/sodipodi-0.dtd"
   xmlns="http://www.w3.org/2000/svg"
   xmlns:svg="http://www.w3.org/2000/svg">
  <sodipodi:namedview
     id="namedview7"
     pagecolor="#ffffff"
     bordercolor="#000000"
     borderopacity="0.25"
     inkscape:showpageshadow="2"
     inkscape:pageopacity="0"
     inkscape:pagecheckerboard="0"
     inkscape:deskcolor="#d1d1d1"
     inkscape:document-units="mm"
     showgrid="false"
     inkscape:zoom="1"
     inkscape:cx="-372"
     inkscape:cy="427"
     inkscape:window-width="2560"
     inkscape:window-height="1369"
     inkscape:window-x="-8"
     inkscape:window-y="-8"
     inkscape:window-maximized="1"
     inkscape:current-layer="layer1" />
  <defs
     id="defs2" />
  <g
     inkscape:label="Layer 1"
     inkscape:groupmode="layer"
     id="layer1">
    <path
       id="path760-1"
       style="fill:#000000;stroke:#000000;stroke-width:0.0204479"
       d="M 74.713803,5.9105213 C 74.236906,5.9081064 73.62475,6.2148469 72.866888,7.1548897 71.492705,8.8594055 55.699994,36.030347 43.903798,56.418549 l -9.626286,4.092773 A 11.16169,14.610616 64.559974 0 0 33.680132,57.470164 11.16169,14.610616 64.559974 0 0 16.180425,52.77381 11.16169,14.610616 64.559974 0 0 6.8052874,68.895824 11.16169,14.610616 64.559974 0 0 24.304994,73.592178 11.16169,14.610616 64.559974 0 0 26.365333,72.564334 C 27.677284,71.91579 32.492096,69.53274 37.861789,66.871658 34.76017,72.243582 32.008813,77.014613 31.27046,78.296283 a 10.858893,15.018028 24.613024 0 0 -1.156002,1.991093 10.858893,15.018028 24.613024 0 0 2.74712,18.639689 10.858893,15.018028 24.613024 0 0 16.29823,-8.142655 10.858893,15.018028 24.613024 0 0 -2.747636,-18.639689 10.858893,15.018028 24.613024 0 0 -2.842204,-0.917774 L 48.425485,61.6296 C 69.024957,51.396698 96.496946,37.678977 98.258619,36.41977 c 2.825261,-2.019436 0.417546,-3.287138 0.417546,-3.287138 L 53.023654,52.541266 76.041888,7.0458525 c 0,0 -0.417644,-1.1307214 -1.328085,-1.1353312 z M 22.254473,54.871357 a 7.8131825,10.227432 64.559975 0 1 7.394381,4.312398 7.8131825,10.227432 64.559975 0 1 -6.56239,11.285616 7.8131825,10.227432 64.559975 0 1 -12.249899,-3.287138 7.8131825,10.227432 64.559975 0 1 6.56239,-11.285616 7.8131825,10.227432 64.559975 0 1 4.855518,-1.02526 z m 19.497001,20.597709 a 7.6012249,10.512621 24.613026 0 1 2.628264,0.692981 7.6012249,10.512621 24.613026 0 1 1.923396,13.047782 7.6012249,10.512621 24.613026 0 1 -11.408606,5.699911 7.6012249,10.512621 24.613026 0 1 -1.923396,-13.047783 7.6012249,10.512621 24.613026 0 1 8.780342,-6.392891 z" />
  </g>
</svg>
